<?xml version="1.0" standalone="no"?>
<!DOCTYPE svg PUBLIC "-//W3C//DTD SVG 20010904//EN"
 "http://www.w3.org/TR/2001/REC-SVG-20010904/DTD/svg10.dtd">
<svg version="1.0" xmlns="http://www.w3.org/2000/svg"
 width="300.000000pt" height="300.000000pt" viewBox="0 0 300.000000 300.000000"
 preserveAspectRatio="xMidYMid meet">
<metadata>
Created by potrace 1.10, written by Peter Selinger 2001-2011
</metadata>
<g transform="translate(0.000000,300.000000) scale(0.100000,-0.100000)"
fill="#000000" stroke="none">
<path d="M1487 2029 c-18 -30 -41 -99 -34 -105 3 -3 13 18 22 46 9 28 22 49
28 47 6 -2 17 -22 25 -46 8 -23 16 -40 19 -38 7 7 -15 80 -30 102 -14 18 -15
18 -30 -6z"/>
<path d="M1270 2014 c-6 -14 -10 -33 -9 -42 0 -9 6 -2 13 17 l12 34 13 -44 c7
-24 20 -53 28 -64 8 -11 13 -13 10 -5 -4 8 -14 41 -23 73 -19 63 -29 70 -44
31z"/>
<path d="M1696 2003 c-3 -21 -13 -51 -21 -67 -8 -16 -13 -31 -11 -33 5 -6 36
52 46 87 l8 25 10 -25 11 -25 0 26 c1 23 -15 49 -30 49 -3 0 -9 -17 -13 -37z"/>
<path d="M1360 1979 c-13 -49 -7 -63 8 -20 12 33 29 40 38 16 4 -8 10 -15 16
-15 5 0 0 14 -12 30 -12 17 -25 30 -30 30 -5 0 -14 -18 -20 -41z"/>
<path d="M1602 1997 c-28 -29 -29 -46 -2 -22 23 21 23 21 39 -20 11 -30 11
-30 6 9 -6 53 -17 61 -43 33z"/>
<path d="M1127 1984 c-13 -14 -7 -65 14 -115 12 -27 23 -48 25 -46 3 2 -3 21
-11 42 -19 45 -13 59 9 18 8 -16 23 -36 33 -44 19 -15 18 -13 -35 69 -8 12
-17 36 -21 53 -3 17 -9 27 -14 23z"/>
<path d="M1863 1966 c0 -14 -15 -48 -32 -76 -18 -29 -30 -54 -27 -57 2 -2 16
16 31 41 15 25 29 46 31 46 2 0 -5 -23 -16 -52 -25 -67 -19 -74 9 -9 21 50 29
131 12 131 -5 0 -8 -11 -8 -24z"/>
<path d="M1220 1897 c0 -69 4 -92 25 -134 36 -72 61 -90 30 -21 -24 52 -50
157 -41 165 2 3 10 -6 17 -19 6 -12 28 -41 48 -63 20 -22 49 -56 64 -75 l28
-35 -18 33 c-9 18 -37 58 -60 90 -24 31 -51 76 -59 99 -9 24 -21 43 -25 43 -5
0 -9 -37 -9 -83z"/>
<path d="M1746 1937 c-9 -24 -37 -71 -62 -103 -25 -33 -53 -72 -61 -89 l-14
-30 23 30 c13 17 39 48 59 70 20 22 44 54 53 70 l17 30 -5 -58 c-2 -31 -16
-82 -30 -112 -30 -65 -18 -64 21 2 22 38 28 62 31 130 5 100 -7 124 -32 60z"/>
<path d="M1376 1908 c-8 -18 -16 -49 -20 -68 -7 -38 -7 -39 31 50 l15 35 29
-33 c34 -38 37 -33 8 14 -26 43 -46 43 -63 2z"/>
<path d="M1561 1911 c-30 -42 -26 -49 9 -16 l30 28 15 -39 c29 -72 36 -82 29
-44 -10 54 -31 100 -48 100 -8 0 -24 -13 -35 -29z"/>
<path d="M1030 1918 c0 -17 47 -118 55 -118 3 0 -1 13 -10 30 -22 43 -19 45
14 8 16 -18 44 -41 61 -52 25 -14 18 -4 -28 42 -33 33 -63 69 -67 81 -7 23
-25 29 -25 9z"/>
<path d="M1941 1894 c-14 -19 -47 -55 -74 -80 -27 -24 -45 -44 -39 -44 6 0 36
24 68 52 52 49 56 50 40 20 -9 -17 -14 -32 -11 -32 10 0 46 83 43 101 -2 16
-7 13 -27 -17z"/>
<path d="M1475 1839 c-15 -19 -34 -48 -42 -66 -15 -38 -17 -111 -3 -147 12
-32 7 -32 -33 -2 -18 13 -51 32 -75 41 -23 10 -58 35 -76 57 -39 45 -47 37
-36 -35 4 -28 16 -57 30 -72 26 -28 134 -85 159 -85 9 1 -10 14 -41 30 -61 32
-128 94 -128 118 0 13 3 13 18 -2 11 -9 47 -27 82 -41 34 -13 77 -36 96 -50
18 -14 35 -25 38 -25 3 0 -1 19 -9 41 -29 81 -11 187 39 228 12 10 19 5 42
-34 43 -73 42 -125 -1 -229 -6 -14 2 -11 35 13 23 16 67 40 98 51 30 12 68 30
84 41 15 11 28 16 28 10 0 -24 -75 -92 -132 -121 -77 -38 -54 -40 27 -2 33 16
75 45 93 66 27 31 32 44 32 89 l0 52 -37 -41 c-21 -22 -60 -51 -87 -63 -28
-12 -64 -32 -82 -46 l-31 -24 14 42 c24 69 7 142 -50 211 l-23 29 -29 -34z"/>
<path d="M1040 1813 c0 -41 49 -106 115 -151 l50 -35 -56 51 c-31 28 -64 64
-74 79 l-18 28 29 -26 c16 -15 45 -34 64 -43 34 -16 34 -16 10 1 -52 38 -84
68 -101 98 l-19 30 0 -32z"/>
<path d="M1947 1817 c-10 -15 -15 -32 -12 -38 4 -5 3 -8 -2 -7 -10 3 -115 -64
-109 -69 7 -7 49 17 79 45 15 14 27 21 27 15 0 -5 -27 -35 -59 -66 -73 -70
-63 -76 12 -7 56 51 91 108 85 137 -2 13 -7 11 -21 -10z"/>
<path d="M1499 1763 c-2 -21 -1 -72 2 -113 5 -71 5 -69 7 38 2 111 -3 147 -9
75z"/>
<path d="M871 1571 c-11 -7 -9 -12 10 -22 28 -16 377 -26 403 -12 8 4 -49 7
-132 5 -81 -1 -167 1 -192 7 -35 7 -8 9 130 11 105 1 163 5 145 10 -42 11
-347 12 -364 1z"/>
<path d="M1765 1570 c-18 -5 40 -9 145 -10 138 -2 165 -4 130 -11 -25 -6 -111
-8 -192 -7 -83 2 -140 -1 -132 -5 26 -14 375 -4 403 12 19 10 21 15 10 22 -17
11 -322 10 -364 -1z"/>
<path d="M1445 1517 c-9 -14 -17 -38 -18 -53 -2 -23 5 -32 33 -47 33 -18 37
-18 74 -3 37 15 38 18 33 53 -4 20 -16 46 -28 57 l-22 21 17 -25 c34 -51 13
-94 -45 -88 -45 4 -56 27 -35 68 20 40 14 51 -9 17z"/>
<path d="M1225 1510 c-16 -4 -61 -8 -99 -9 -88 -1 -77 -18 20 -30 72 -9 182 0
224 19 24 10 24 10 -5 5 -16 -3 -73 -7 -125 -10 -84 -4 -89 -3 -45 6 28 6 54
14 60 20 5 5 7 8 5 8 -3 -1 -18 -5 -35 -9z"/>
<path d="M1761 1506 c3 -4 26 -11 50 -16 35 -8 24 -8 -51 -5 -52 3 -108 7
-125 10 -28 5 -28 5 -6 -5 47 -20 154 -30 226 -19 92 13 108 29 28 29 -33 0
-76 3 -94 6 -19 4 -31 4 -28 0z"/>
<path d="M806 1293 c-12 -12 -6 -22 11 -16 14 5 15 1 10 -30 -4 -28 -2 -37 8
-37 10 0 12 9 8 37 -5 32 -4 35 11 30 12 -5 16 -3 14 5 -5 13 -52 21 -62 11z"/>
<path d="M910 1271 c0 -16 -3 -36 -6 -45 -4 -11 -1 -16 11 -16 12 0 15 5 10
20 -5 16 -2 20 15 20 17 0 20 -4 15 -21 -5 -14 -3 -20 5 -17 6 2 11 7 11 11
-1 4 -1 23 -1 42 0 19 -5 35 -11 35 -6 0 -8 -9 -4 -20 5 -16 2 -20 -15 -20
-17 0 -20 4 -15 20 4 11 2 20 -4 20 -6 0 -11 -13 -11 -29z"/>
<path d="M1025 1257 c0 -39 2 -43 24 -42 13 0 26 5 28 12 3 7 -3 9 -16 6 -12
-3 -21 -1 -21 5 0 6 8 13 18 15 16 4 16 5 0 6 -10 0 -18 6 -18 11 0 6 6 10 13
8 7 -2 14 2 15 7 1 6 -8 11 -20 13 -21 3 -23 -1 -23 -41z"/>
<path d="M1167 1293 c-4 -3 -3 -11 2 -17 4 -6 13 -24 18 -41 10 -27 12 -28 19
-11 5 13 3 21 -4 24 -7 2 -12 15 -12 28 0 23 -10 31 -23 17z"/>
<path d="M1213 1292 c-8 -5 -7 -18 7 -47 18 -40 19 -40 28 -15 20 54 23 70 13
70 -6 0 -11 -11 -11 -24 0 -36 -18 -41 -22 -6 -2 19 -7 27 -15 22z"/>
<path d="M1315 1255 c0 -26 4 -43 10 -41 6 1 9 10 7 20 -2 9 4 16 13 16 8 0
15 -9 15 -20 0 -11 5 -20 10 -20 6 0 10 20 10 45 0 25 -4 45 -10 45 -5 0 -10
-9 -10 -20 0 -11 -7 -20 -15 -20 -8 0 -15 9 -15 20 0 11 -3 20 -7 20 -5 0 -8
-20 -8 -45z"/>
<path d="M1430 1254 c0 -28 4 -44 11 -42 6 2 10 7 10 11 -1 4 -1 23 -1 42 0
19 -4 35 -10 35 -5 0 -10 -21 -10 -46z"/>
<path d="M1490 1285 c0 -9 6 -12 17 -8 14 5 15 1 10 -30 -4 -28 -2 -37 8 -37
10 0 12 9 8 37 -5 32 -4 35 11 30 12 -5 16 -3 14 5 -7 19 -68 21 -68 3z"/>
<path d="M1595 1256 c0 -38 2 -42 24 -41 13 0 26 5 28 12 3 7 -3 9 -16 6 -12
-3 -21 -1 -21 5 0 6 8 13 18 15 16 4 16 5 0 6 -10 0 -18 6 -18 11 0 6 6 10 13
8 7 -2 15 2 17 7 3 6 -6 10 -20 11 -23 1 -25 -3 -25 -40z"/>
<path d="M1749 1298 c0 -2 -1 -21 -3 -43 -2 -38 0 -41 23 -40 13 0 26 6 29 14
3 10 -2 11 -18 6 -22 -7 -23 -5 -17 29 3 20 2 36 -4 36 -5 0 -9 -1 -10 -2z"/>
<path d="M1848 1289 c-22 -12 -23 -52 -4 -68 35 -29 76 35 44 67 -14 14 -18
14 -40 1z m40 -32 c4 -20 -25 -34 -40 -19 -15 15 -1 44 19 40 10 -2 19 -11 21
-21z"/>
<path d="M1936 1293 c-12 -12 -6 -22 11 -16 14 5 15 1 10 -30 -4 -28 -2 -37 8
-37 10 0 12 9 8 37 -5 32 -4 35 11 30 12 -5 16 -3 14 5 -5 13 -52 21 -62 11z"/>
<path d="M2034 1284 c3 -9 6 -26 6 -39 0 -27 26 -40 46 -24 16 13 19 79 4 79
-5 0 -10 -16 -10 -35 0 -26 -4 -35 -16 -35 -13 0 -15 7 -11 35 4 27 2 35 -10
35 -10 0 -13 -6 -9 -16z"/>
<path d="M2149 1284 c-11 -14 -10 -19 11 -36 25 -19 25 -20 3 -15 -13 3 -23 1
-23 -3 0 -14 17 -21 34 -14 20 8 21 33 1 40 -8 4 -15 11 -15 16 0 6 7 7 16 4
10 -4 14 -1 12 6 -7 19 -24 20 -39 2z"/>
<path d="M970 1130 c0 -37 2 -41 23 -38 18 2 22 9 22 38 0 29 -4 36 -22 38
-21 3 -23 -1 -23 -38z"/>
<path d="M1057 1133 c-15 -39 -13 -59 3 -33 8 12 13 13 30 2 11 -7 20 -9 20
-5 0 15 -24 73 -31 73 -4 0 -14 -17 -22 -37z"/>
<path d="M1130 1131 c0 -44 19 -58 22 -16 0 14 1 30 2 37 1 6 -5 13 -11 16 -9
2 -13 -9 -13 -37z"/>
<path d="M1180 1149 c0 -11 -4 -17 -10 -14 -14 9 -12 -7 4 -27 20 -27 26 -22
26 22 0 22 -4 40 -10 40 -5 0 -10 -9 -10 -21z"/>
<path d="M1232 1158 c-27 -27 -10 -60 38 -71 23 -6 25 -3 25 26 0 18 -4 38 -8
45 -10 15 -39 16 -55 0z m48 -29 c0 -12 -7 -19 -20 -19 -19 0 -28 28 -14 43
11 11 34 -5 34 -24z"/>
<path d="M1322 1133 c3 -33 6 -38 28 -38 22 0 25 5 28 40 2 22 0 36 -4 32 -5
-4 -9 -18 -9 -29 0 -12 -6 -23 -12 -25 -9 -3 -13 6 -13 26 0 17 -5 31 -11 31
-6 0 -9 -16 -7 -37z"/>
<path d="M1410 1130 c0 -33 3 -40 20 -40 11 0 20 5 20 10 0 6 -8 10 -17 10
-15 0 -14 2 3 15 17 13 17 14 2 15 -10 0 -18 4 -18 9 0 5 8 12 18 14 13 4 11
5 -5 6 -20 1 -23 -4 -23 -39z"/>
<path d="M1478 1163 c6 -2 12 -20 12 -39 0 -19 5 -34 10 -34 6 0 10 15 10 34
0 19 6 37 13 39 6 3 -4 5 -23 5 -19 0 -29 -2 -22 -5z"/>
<path d="M1598 1150 c-4 -53 -4 -54 29 -56 l33 -2 -20 28 c-22 31 -26 45 -10
35 6 -3 10 -1 10 4 0 21 -40 12 -42 -9z"/>
<path d="M1720 1130 c0 -22 5 -40 10 -40 6 0 10 9 10 20 0 11 7 20 15 20 9 0
15 -9 15 -22 0 -12 3 -18 7 -14 10 10 11 76 1 76 -4 0 -8 -7 -8 -15 0 -8 -7
-15 -15 -15 -8 0 -15 7 -15 15 0 8 -4 15 -10 15 -5 0 -10 -18 -10 -40z"/>
<path d="M1822 1158 c-28 -28 -1 -75 37 -63 25 8 34 31 21 56 -12 21 -40 25
-58 7z m48 -24 c0 -19 -28 -30 -42 -16 -8 8 -8 15 1 26 14 17 41 10 41 -10z"/>
<path d="M1908 1163 c6 -2 12 -20 12 -39 0 -19 5 -34 10 -34 6 0 10 15 10 34
0 19 6 37 13 39 6 3 -4 5 -23 5 -19 0 -29 -2 -22 -5z"/>
<path d="M1980 1130 c0 -33 3 -40 20 -40 11 0 20 5 20 10 0 6 -7 10 -16 10 -8
0 -12 5 -9 10 4 6 11 8 16 5 5 -4 9 -1 9 4 0 6 -8 11 -17 11 -16 1 -16 2 1 15
19 15 19 15 -2 15 -19 0 -22 -6 -22 -40z"/>
<path d="M2050 1130 c0 -33 3 -40 20 -40 11 0 20 5 20 10 0 6 -7 10 -16 10
-13 0 -15 7 -10 30 3 17 1 30 -4 30 -6 0 -10 -18 -10 -40z"/>
</g>
</svg>
